<svg width="16" height="21" viewBox="0 0 16 21" fill="none" xmlns="http://www.w3.org/2000/svg">
<path d="M1.54043 18.1781C0.980749 18.1781 0.518322 18.6405 0.518322 19.2002C0.518322 19.7598 0.980749 20.2223 1.54043 20.2223H14.6575C15.2172 20.2223 15.6796 19.7598 15.6796 19.2002C15.6796 18.6405 15.2172 18.1781 14.6333 18.1781H1.54043Z" fill="#C8ACD9"/>
<path d="M13.9031 8.17597L9.10892 12.9702V1.79994C9.10892 1.24026 8.64649 0.777832 8.08681 0.777832C7.52713 0.777832 7.0647 1.24026 7.0647 1.79994V12.9702L2.27051 8.17597C1.85682 7.76228 1.22415 7.76228 0.810267 8.17597C0.396578 8.58966 0.396578 9.22233 0.810267 9.63621L7.35664 16.2069C7.45391 16.3042 7.57563 16.3774 7.69734 16.4259H7.72161C7.84333 16.4746 7.96504 16.4989 8.11103 16.4989C8.25701 16.4989 8.37873 16.4746 8.50044 16.4259H8.52472C8.64643 16.3772 8.76815 16.3042 8.86541 16.2069L15.4118 9.66055C15.8255 9.24686 15.8255 8.61419 15.4118 8.2003C14.9738 7.78678 14.3167 7.78678 13.903 8.17603L13.9031 8.17597Z" fill="#C8ACD9"/>
</svg>
