<svg width="25" height="25" viewBox="0 0 25 25" fill="none" xmlns="http://www.w3.org/2000/svg">
<g opacity="0.7">
<path d="M6.69438 0.521333V6.89538C6.69438 7.18505 6.46476 7.41691 6.17788 7.41691L3.36599 7.4171C2.90695 7.4171 2.67733 7.93863 2.96421 8.28631L11.6871 16.8627C11.9167 17.0945 12.261 17.0945 12.4904 16.8627L21.2133 8.28631C21.5001 7.93863 21.2707 7.4171 20.8115 7.4171H17.9994C17.7125 7.4171 17.4829 7.18525 17.4829 6.89558V0.521527C17.4829 0.231856 17.2533 1.21724e-07 16.9664 1.21724e-07H7.21058C6.92389 -0.000193936 6.69438 0.231667 6.69438 0.521333Z" fill="#212121"/>
<path d="M0 23.3194V20.7698C0 19.8426 0.746113 19.0894 1.66419 19.0894H22.5136C23.4319 19.0894 24.1778 19.8428 24.1778 20.7698V23.3194C24.1778 24.2466 23.4317 24.9998 22.5136 24.9998L1.66419 25C0.746113 25 0 24.2466 0 23.3194Z" fill="#212121"/>
</g>
</svg>
