<svg width="28" height="29" viewBox="0 0 28 29" fill="none" xmlns="http://www.w3.org/2000/svg">
<path opacity="0.7" fill-rule="evenodd" clip-rule="evenodd" d="M12.7201 0.888916C19.2543 0.888916 24.5514 6.18593 24.5514 12.7201C24.5514 15.1116 23.8418 17.3373 22.6218 19.1983L26.7171 23.2935C27.8192 24.3956 27.8192 26.1824 26.7171 27.2846C25.615 28.3867 23.8281 28.3867 22.726 27.2846L18.4919 23.0504C16.7845 24.0064 14.816 24.5514 12.7201 24.5514C6.18593 24.5514 0.888916 19.2543 0.888916 12.7201C0.888916 6.18593 6.18593 0.888916 12.7201 0.888916ZM12.7201 18.9071C16.1371 18.9071 18.9071 16.1371 18.9071 12.7201C18.9071 9.30317 16.1371 6.53317 12.7201 6.53317C9.30317 6.53317 6.53317 9.30317 6.53317 12.7201C6.53317 16.1371 9.30317 18.9071 12.7201 18.9071Z" fill="#212121"/>
</svg>
