<svg width="25" height="25" viewBox="0 0 25 25" fill="none" xmlns="http://www.w3.org/2000/svg">
<g opacity="0.7">
<path d="M9.7035 4.01179C11.0512 4.76846 11.0512 6.66012 9.7035 7.41678L3.03235 11.1623C1.68464 11.9189 -6.80237e-08 10.9731 0 9.45977L3.36717e-07 1.9688C4.04741e-07 0.455476 1.68464 -0.490354 3.03235 0.266309L9.7035 4.01179Z" fill="#212121"/>
<path d="M14.2857 1.78571C14.2857 0.799492 15.0852 1.44662e-08 16.0714 1.44662e-08H23.2143C24.2005 1.44662e-08 25 0.799492 25 1.78571V8.92857C25 9.91479 24.2005 10.7143 23.2143 10.7143H16.0714C15.0852 10.7143 14.2857 9.91479 14.2857 8.92857V1.78571Z" fill="#212121"/>
<path d="M14.2857 16.0714C14.2857 15.0852 15.0852 14.2857 16.0714 14.2857H23.2143C24.2005 14.2857 25 15.0852 25 16.0714V23.2143C25 24.2005 24.2005 25 23.2143 25H16.0714C15.0852 25 14.2857 24.2005 14.2857 23.2143V16.0714Z" fill="#212121"/>
<path d="M0 16.0714C0 15.0852 0.799492 14.2857 1.78571 14.2857H8.92857C9.91479 14.2857 10.7143 15.0852 10.7143 16.0714V23.2143C10.7143 24.2005 9.91479 25 8.92857 25H1.78571C0.799492 25 0 24.2005 0 23.2143V16.0714Z" fill="#212121"/>
</g>
</svg>
