<svg width="29" height="29" viewBox="0 0 29 29" fill="none" xmlns="http://www.w3.org/2000/svg">
<path opacity="0.7" fill-rule="evenodd" clip-rule="evenodd" d="M5.88892 0.888672C3.12749 0.888672 0.888916 3.12725 0.888916 5.88867V23.1109C0.888916 25.8723 3.12749 28.1109 5.88892 28.1109H23.1111C25.8726 28.1109 28.1111 25.8723 28.1111 23.1109V5.88867C28.1111 3.12725 25.8726 0.888672 23.1111 0.888672H5.88892ZM6.81567 23.9702C7.21652 24.1364 7.64619 24.222 8.08011 24.222H20.9215C21.7954 24.2216 22.6336 23.8746 23.2523 23.2571C23.8709 22.6396 24.2197 21.8019 24.2222 20.9276V8.08969C24.2222 7.21346 23.8747 6.37305 23.2559 5.75301C22.637 5.13298 21.7975 4.78401 20.9218 4.78275L15.6216 4.7956C14.758 4.79769 14.3829 5.88949 15.0625 6.42242C15.2227 6.548 15.4203 6.61624 15.6238 6.61624H20.9202C21.1131 6.61606 21.3042 6.65397 21.4825 6.72781C21.6608 6.80164 21.8227 6.90995 21.9591 7.04651C22.0955 7.18308 22.2036 7.34524 22.2772 7.52368C22.3508 7.70212 22.3885 7.89333 22.3882 8.08638V20.9256C22.3882 21.119 22.3501 21.3104 22.2761 21.489C22.202 21.6676 22.0935 21.8298 21.9568 21.9664C21.82 22.1029 21.6577 22.2112 21.479 22.2849C21.3004 22.3587 21.109 22.3964 20.9158 22.3961L8.08478 22.3885C7.89179 22.3883 7.70071 22.3501 7.52247 22.2761C7.34423 22.202 7.18232 22.0935 7.04598 21.9569C6.90963 21.8202 6.80153 21.658 6.72784 21.4795C6.65415 21.3011 6.61631 21.1097 6.61649 20.9166L6.6165 7.7478L6.61648 7.74587C6.6139 7.54449 6.66936 7.34663 6.77621 7.17596C6.88306 7.00528 7.03679 6.86901 7.21901 6.78344L7.22161 6.78222L7.22416 6.7809C7.79994 6.4833 8.58744 6.57809 9.23514 7.04279L17.8866 13.8466C17.949 13.8996 17.9981 13.9665 18.03 14.0419C18.0622 14.118 18.076 14.2006 18.0703 14.2831L18.0702 14.2842C18.065 14.3682 18.0399 14.4499 17.9971 14.5224C17.9543 14.5949 17.895 14.6563 17.8239 14.7015L17.822 14.7028L11.6463 18.9092C11.5658 18.9586 11.4736 18.9858 11.3791 18.9879C11.2837 18.9901 11.1894 18.9665 11.1062 18.9198C11.0229 18.8731 10.9537 18.8049 10.9057 18.7223C10.8577 18.6397 10.8328 18.5458 10.8335 18.4503L10.8191 16.2234C10.8174 15.952 10.6953 15.6954 10.4858 15.5228C9.88768 15.0301 8.98646 15.4581 8.98981 16.2333L8.99941 18.4526C8.99958 18.8773 9.11377 19.2941 9.33007 19.6596C9.54641 20.0251 9.85695 20.3257 10.2292 20.53C10.6014 20.7343 11.0217 20.8348 11.4461 20.8209C11.8704 20.807 12.2833 20.6793 12.6414 20.4512L12.6433 20.4499L18.8172 16.2456C19.1287 16.0443 19.3885 15.7726 19.5757 15.4524C19.7633 15.1316 19.8729 14.7712 19.8955 14.4003C19.9182 14.0294 19.8533 13.6583 19.7061 13.3171C19.5589 12.9759 19.3335 12.6741 19.0482 12.4362L19.0466 12.4348L10.3473 5.59261L10.3226 5.57447L10.3222 5.5742C9.11802 4.69639 7.60936 4.52685 6.38556 5.1512C5.89985 5.38955 5.49127 5.76028 5.20685 6.22072C4.92232 6.68134 4.77363 7.213 4.77789 7.75446V20.915C4.77749 21.3491 4.86259 21.779 5.02835 22.1802C5.19411 22.5815 5.43729 22.9461 5.74397 23.2532C6.05065 23.5603 6.41482 23.804 6.81567 23.9702ZM10.1784 13.4766C10.3489 13.4205 10.4989 13.315 10.6095 13.1736C10.7575 12.9839 10.8242 12.7432 10.795 12.5043C10.7658 12.2654 10.6431 12.0479 10.4538 11.8994C10.3124 11.7888 10.1414 11.7226 9.96246 11.7093C9.78349 11.6959 9.60458 11.7359 9.44833 11.8242C9.29209 11.9125 9.16553 12.0452 9.08467 12.2054C9.00381 12.3657 8.97227 12.5463 8.99405 12.7245C9.01583 12.9027 9.08994 13.0704 9.20701 13.2065C9.32409 13.3426 9.47887 13.4408 9.65178 13.4889C9.82469 13.537 10.008 13.5327 10.1784 13.4766Z" fill="#212121"/>
</svg>
