<svg width="16" height="21" viewBox="0 0 16 21" fill="none" xmlns="http://www.w3.org/2000/svg">
<path d="M15.5399 5.28985V17.9663C15.538 18.564 15.2998 19.1369 14.8772 19.5596C14.4545 19.9822 13.8816 20.2204 13.2839 20.2223H2.75598C2.15825 20.2204 1.58536 19.9822 1.1627 19.5596C0.740036 19.1369 0.501848 18.564 0.5 17.9663V5.28985C0.501846 4.69212 0.740032 4.11923 1.1627 3.69657C1.50868 3.35059 1.95532 3.12822 2.43385 3.05791C2.61034 3.03197 2.75598 3.17877 2.75598 3.35715V4.53786C2.75782 5.13558 2.99601 5.70847 3.41868 6.13114C3.84134 6.5538 4.41423 6.79199 5.01196 6.79384H11.0279C11.6256 6.79199 12.1985 6.5538 12.6212 6.13114C13.0438 5.70847 13.282 5.13558 13.2839 4.53786V3.35715C13.2839 3.17877 13.4295 3.03197 13.606 3.05791C14.0845 3.12822 14.5312 3.35059 14.8772 3.69657C15.2998 4.11924 15.538 4.69212 15.5399 5.28985Z" fill="#FFFDED"/>
<path d="M5.01196 5.28985C4.81254 5.28985 4.62119 5.21062 4.48019 5.06962C4.33919 4.92863 4.25996 4.73727 4.25996 4.53786V3.03387C4.25996 2.83446 4.33919 2.6431 4.48019 2.50211C4.62119 2.36111 4.81254 2.28188 5.01196 2.28188H5.85797L6.07601 1.90588C6.42247 1.30377 7.03027 0.897914 7.71914 0.808792C7.81414 0.788649 7.91083 0.77841 8.00785 0.777906C8.11326 0.776899 8.21868 0.786131 8.32224 0.80577C9.01128 0.896246 9.61859 1.30312 9.96455 1.90591L10.1819 2.28191H11.0279C11.2274 2.28191 11.4187 2.36114 11.5597 2.50214C11.7007 2.64313 11.7799 2.83449 11.7799 3.0339V4.53789C11.7799 4.7373 11.7007 4.92866 11.5597 5.06965C11.4187 5.21065 11.2274 5.28988 11.0279 5.28988L5.01196 5.28985Z" fill="#FFFDED"/>
</svg>
