<svg width="26" height="26" viewBox="0 0 26 26" fill="none" xmlns="http://www.w3.org/2000/svg">
<path d="M13.1666 0.333374C6.24996 0.333374 0.666626 5.91671 0.666626 12.8334C0.666626 19.75 6.24996 25.3334 13.1666 25.3334C20.0833 25.3334 25.6666 19.75 25.6666 12.8334C25.6666 5.91671 20.0833 0.333374 13.1666 0.333374ZM13.1666 5.75004C15.0833 5.75004 16.6666 7.30555 16.6666 9.19454C16.6666 11.1113 15.1111 12.639 13.1666 12.639C11.2222 12.639 9.66668 11.0835 9.66668 9.19454C9.66668 7.30555 11.2499 5.75004 13.1666 5.75004ZM19.5277 19.2223C19.3055 19.5555 18.9166 19.7778 18.5 19.7778H7.86112C7.44453 19.7778 7.05566 19.5832 6.83339 19.2223C6.61114 18.889 6.55553 18.4445 6.72236 18.0556C7.77797 15.4168 10.3335 13.7223 13.1946 13.7223C16.0556 13.7223 18.6113 15.4168 19.6668 18.0556C19.8055 18.4445 19.7499 18.8888 19.5277 19.2223H19.5277Z" fill="#562FD6"/>
</svg>
